<svg width="60.25in" height="20in" viewBox="0 0 60.25 20" xmlns="http://www.w3.org/2000/svg" version="1.1" preserveAspectRatio="xMidYMid meet"><g id="svgGroup" stroke-linecap="round" fill-rule="evenodd" font-size="9pt" stroke="#000" stroke-width="0.25mm" fill="none" style="stroke:#000;stroke-width:0.25mm;fill:none"><path d="M 0 14 L 0 15.363 L 0.295 15.363 A 0.125 0.125 0 1 1 0.472 15.54 L 0.472 16.277 A 0.125 0.125 0 1 1 0.295 16.454 L 0 16.454 L 0 17.546 L 0.295 17.546 A 0.125 0.125 0 1 1 0.472 17.723 L 0.472 18.46 A 0.125 0.125 0 1 1 0.295 18.637 L 0 18.637 L 0 19.729 L 0 20 L 1.814 20 L 1.814 19.705 A 0.125 0.125 0 1 1 1.991 19.528 L 2.728 19.528 A 0.125 0.125 0 1 1 2.905 19.705 L 2.905 20 L 3.997 20 L 3.997 19.705 A 0.125 0.125 0 1 1 4.174 19.528 L 4.911 19.528 A 0.125 0.125 0 1 1 5.088 19.705 L 5.088 20 L 6.18 20 L 6.18 19.705 A 0.125 0.125 0 1 1 6.357 19.528 L 7.094 19.528 A 0.125 0.125 0 1 1 7.271 19.705 L 7.271 20 L 8.363 20 L 8.363 19.705 A 0.125 0.125 0 1 1 8.54 19.528 L 9.277 19.528 A 0.125 0.125 0 1 1 9.454 19.705 L 9.454 20 L 10.546 20 L 10.546 19.705 A 0.125 0.125 0 1 1 10.723 19.528 L 11.46 19.528 A 0.125 0.125 0 1 1 11.637 19.705 L 11.637 20 L 12.729 20 L 12.729 19.705 A 0.125 0.125 0 1 1 12.906 19.528 L 13.643 19.528 A 0.125 0.125 0 1 1 13.82 19.705 L 13.82 20 L 14.912 20 L 14.912 19.705 A 0.125 0.125 0 1 1 15.089 19.528 L 15.826 19.528 A 0.125 0.125 0 1 1 16.003 19.705 L 16.003 20 L 17.095 20 L 17.095 19.705 A 0.125 0.125 0 1 1 17.272 19.528 L 18.009 19.528 A 0.125 0.125 0 1 1 18.186 19.705 L 18.186 20 L 19.278 20 L 20 20 L 20 18.637 L 19.705 18.637 A 0.125 0.125 0 1 1 19.528 18.46 L 19.528 17.723 A 0.125 0.125 0 1 1 19.705 17.546 L 20 17.546 L 20 16.454 L 19.705 16.454 A 0.125 0.125 0 1 1 19.528 16.277 L 19.528 15.54 A 0.125 0.125 0 1 1 19.705 15.363 L 20 15.363 L 20 14.271 L 20 14 L 0 14 Z" id="front_outsideCutPath" stroke="#FF0000" stroke-width="0.5" style="stroke:#FF0000;stroke-width:0.5" vector-effect="non-scaling-stroke"/><path d="M 20.597 14 L 20.597 15.186 A 0.125 0.125 0 1 1 20.42 15.363 L 20.125 15.363 L 20.125 16.454 L 20.42 16.454 A 0.125 0.125 0 1 1 20.597 16.631 L 20.597 17.369 A 0.125 0.125 0 1 1 20.42 17.546 L 20.125 17.546 L 20.125 18.637 L 20.42 18.637 A 0.125 0.125 0 1 1 20.597 18.814 L 20.597 19.729 L 20.597 20 L 21.939 20 L 21.939 19.705 A 0.125 0.125 0 1 1 22.116 19.528 L 22.853 19.528 A 0.125 0.125 0 1 1 23.03 19.705 L 23.03 20 L 24.122 20 L 24.122 19.705 A 0.125 0.125 0 1 1 24.299 19.528 L 25.036 19.528 A 0.125 0.125 0 1 1 25.213 19.705 L 25.213 20 L 26.305 20 L 26.305 19.705 A 0.125 0.125 0 1 1 26.482 19.528 L 27.219 19.528 A 0.125 0.125 0 1 1 27.396 19.705 L 27.396 20 L 28.488 20 L 28.488 19.705 A 0.125 0.125 0 1 1 28.665 19.528 L 29.402 19.528 A 0.125 0.125 0 1 1 29.579 19.705 L 29.579 20 L 30.671 20 L 30.671 19.705 A 0.125 0.125 0 1 1 30.848 19.528 L 31.585 19.528 A 0.125 0.125 0 1 1 31.762 19.705 L 31.762 20 L 32.854 20 L 32.854 19.705 A 0.125 0.125 0 1 1 33.031 19.528 L 33.768 19.528 A 0.125 0.125 0 1 1 33.945 19.705 L 33.945 20 L 35.037 20 L 35.037 19.705 A 0.125 0.125 0 1 1 35.214 19.528 L 35.951 19.528 A 0.125 0.125 0 1 1 36.128 19.705 L 36.128 20 L 37.22 20 L 37.22 19.705 A 0.125 0.125 0 1 1 37.397 19.528 L 38.134 19.528 A 0.125 0.125 0 1 1 38.311 19.705 L 38.311 20 L 39.403 20 L 39.653 20 L 39.653 18.814 A 0.125 0.125 0 1 1 39.83 18.637 L 40.125 18.637 L 40.125 17.546 L 39.83 17.546 A 0.125 0.125 0 1 1 39.653 17.369 L 39.653 16.631 A 0.125 0.125 0 1 1 39.83 16.454 L 40.125 16.454 L 40.125 15.363 L 39.83 15.363 A 0.125 0.125 0 1 1 39.653 15.186 L 39.653 14.271 L 39.653 14 L 20.597 14 Z" id="left_outsideCutPath" stroke="#FF0000" stroke-width="0.5" style="stroke:#FF0000;stroke-width:0.5" vector-effect="non-scaling-stroke"/><path d="M 0 7.875 L 0 9.238 L 0.295 9.238 A 0.125 0.125 0 1 1 0.472 9.415 L 0.472 10.152 A 0.125 0.125 0 1 1 0.295 10.329 L 0 10.329 L 0 11.421 L 0.295 11.421 A 0.125 0.125 0 1 1 0.472 11.598 L 0.472 12.335 A 0.125 0.125 0 1 1 0.295 12.512 L 0 12.512 L 0 13.604 L 0 13.875 L 1.814 13.875 L 1.814 13.58 A 0.125 0.125 0 1 1 1.991 13.403 L 2.728 13.403 A 0.125 0.125 0 1 1 2.905 13.58 L 2.905 13.875 L 3.997 13.875 L 3.997 13.58 A 0.125 0.125 0 1 1 4.174 13.403 L 4.911 13.403 A 0.125 0.125 0 1 1 5.088 13.58 L 5.088 13.875 L 6.18 13.875 L 6.18 13.58 A 0.125 0.125 0 1 1 6.357 13.403 L 7.094 13.403 A 0.125 0.125 0 1 1 7.271 13.58 L 7.271 13.875 L 8.363 13.875 L 8.363 13.58 A 0.125 0.125 0 1 1 8.54 13.403 L 9.277 13.403 A 0.125 0.125 0 1 1 9.454 13.58 L 9.454 13.875 L 10.546 13.875 L 10.546 13.58 A 0.125 0.125 0 1 1 10.723 13.403 L 11.46 13.403 A 0.125 0.125 0 1 1 11.637 13.58 L 11.637 13.875 L 12.729 13.875 L 12.729 13.58 A 0.125 0.125 0 1 1 12.906 13.403 L 13.643 13.403 A 0.125 0.125 0 1 1 13.82 13.58 L 13.82 13.875 L 14.912 13.875 L 14.912 13.58 A 0.125 0.125 0 1 1 15.089 13.403 L 15.826 13.403 A 0.125 0.125 0 1 1 16.003 13.58 L 16.003 13.875 L 17.095 13.875 L 17.095 13.58 A 0.125 0.125 0 1 1 17.272 13.403 L 18.009 13.403 A 0.125 0.125 0 1 1 18.186 13.58 L 18.186 13.875 L 19.278 13.875 L 20 13.875 L 20 12.512 L 19.705 12.512 A 0.125 0.125 0 1 1 19.528 12.335 L 19.528 11.598 A 0.125 0.125 0 1 1 19.705 11.421 L 20 11.421 L 20 10.329 L 19.705 10.329 A 0.125 0.125 0 1 1 19.528 10.152 L 19.528 9.415 A 0.125 0.125 0 1 1 19.705 9.238 L 20 9.238 L 20 8.146 L 20 7.875 L 0 7.875 Z" id="back_outsideCutPath" stroke="#FF0000" stroke-width="0.5" style="stroke:#FF0000;stroke-width:0.5" vector-effect="non-scaling-stroke"/><path d="M 20.597 7.875 L 20.597 9.061 A 0.125 0.125 0 1 1 20.42 9.238 L 20.125 9.238 L 20.125 10.329 L 20.42 10.329 A 0.125 0.125 0 1 1 20.597 10.506 L 20.597 11.244 A 0.125 0.125 0 1 1 20.42 11.421 L 20.125 11.421 L 20.125 12.512 L 20.42 12.512 A 0.125 0.125 0 1 1 20.597 12.689 L 20.597 13.604 L 20.597 13.875 L 21.939 13.875 L 21.939 13.58 A 0.125 0.125 0 1 1 22.116 13.403 L 22.853 13.403 A 0.125 0.125 0 1 1 23.03 13.58 L 23.03 13.875 L 24.122 13.875 L 24.122 13.58 A 0.125 0.125 0 1 1 24.299 13.403 L 25.036 13.403 A 0.125 0.125 0 1 1 25.213 13.58 L 25.213 13.875 L 26.305 13.875 L 26.305 13.58 A 0.125 0.125 0 1 1 26.482 13.403 L 27.219 13.403 A 0.125 0.125 0 1 1 27.396 13.58 L 27.396 13.875 L 28.488 13.875 L 28.488 13.58 A 0.125 0.125 0 1 1 28.665 13.403 L 29.402 13.403 A 0.125 0.125 0 1 1 29.579 13.58 L 29.579 13.875 L 30.671 13.875 L 30.671 13.58 A 0.125 0.125 0 1 1 30.848 13.403 L 31.585 13.403 A 0.125 0.125 0 1 1 31.762 13.58 L 31.762 13.875 L 32.854 13.875 L 32.854 13.58 A 0.125 0.125 0 1 1 33.031 13.403 L 33.768 13.403 A 0.125 0.125 0 1 1 33.945 13.58 L 33.945 13.875 L 35.037 13.875 L 35.037 13.58 A 0.125 0.125 0 1 1 35.214 13.403 L 35.951 13.403 A 0.125 0.125 0 1 1 36.128 13.58 L 36.128 13.875 L 37.22 13.875 L 37.22 13.58 A 0.125 0.125 0 1 1 37.397 13.403 L 38.134 13.403 A 0.125 0.125 0 1 1 38.311 13.58 L 38.311 13.875 L 39.403 13.875 L 39.653 13.875 L 39.653 12.689 A 0.125 0.125 0 1 1 39.83 12.512 L 40.125 12.512 L 40.125 11.421 L 39.83 11.421 A 0.125 0.125 0 1 1 39.653 11.244 L 39.653 10.506 A 0.125 0.125 0 1 1 39.83 10.329 L 40.125 10.329 L 40.125 9.238 L 39.83 9.238 A 0.125 0.125 0 1 1 39.653 9.061 L 39.653 8.146 L 39.653 7.875 L 20.597 7.875 Z" id="right_outsideCutPath" stroke="#FF0000" stroke-width="0.5" style="stroke:#FF0000;stroke-width:0.5" vector-effect="non-scaling-stroke"/><path d="M 40.722 0.472 L 40.722 1.637 A 0.125 0.125 0 1 1 40.545 1.814 L 40.25 1.814 L 40.25 2.905 L 40.545 2.905 A 0.125 0.125 0 1 1 40.722 3.082 L 40.722 3.82 A 0.125 0.125 0 1 1 40.545 3.997 L 40.25 3.997 L 40.25 5.088 L 40.545 5.088 A 0.125 0.125 0 1 1 40.722 5.265 L 40.722 6.003 A 0.125 0.125 0 1 1 40.545 6.18 L 40.25 6.18 L 40.25 7.271 L 40.545 7.271 A 0.125 0.125 0 1 1 40.722 7.448 L 40.722 8.186 A 0.125 0.125 0 1 1 40.545 8.363 L 40.25 8.363 L 40.25 9.454 L 40.545 9.454 A 0.125 0.125 0 1 1 40.722 9.631 L 40.722 10.369 A 0.125 0.125 0 1 1 40.545 10.546 L 40.25 10.546 L 40.25 11.637 L 40.545 11.637 A 0.125 0.125 0 1 1 40.722 11.814 L 40.722 12.552 A 0.125 0.125 0 1 1 40.545 12.729 L 40.25 12.729 L 40.25 13.82 L 40.545 13.82 A 0.125 0.125 0 1 1 40.722 13.997 L 40.722 14.735 A 0.125 0.125 0 1 1 40.545 14.912 L 40.25 14.912 L 40.25 16.003 L 40.545 16.003 A 0.125 0.125 0 1 1 40.722 16.18 L 40.722 16.918 A 0.125 0.125 0 1 1 40.545 17.095 L 40.25 17.095 L 40.25 18.186 L 40.545 18.186 A 0.125 0.125 0 1 1 40.722 18.363 L 40.722 19.278 L 40.722 19.528 L 41.887 19.528 A 0.125 0.125 0 1 1 42.064 19.705 L 42.064 20 L 43.155 20 L 43.155 19.705 A 0.125 0.125 0 1 1 43.332 19.528 L 44.07 19.528 A 0.125 0.125 0 1 1 44.247 19.705 L 44.247 20 L 45.338 20 L 45.338 19.705 A 0.125 0.125 0 1 1 45.515 19.528 L 46.253 19.528 A 0.125 0.125 0 1 1 46.43 19.705 L 46.43 20 L 47.521 20 L 47.521 19.705 A 0.125 0.125 0 1 1 47.698 19.528 L 48.436 19.528 A 0.125 0.125 0 1 1 48.613 19.705 L 48.613 20 L 49.704 20 L 49.704 19.705 A 0.125 0.125 0 1 1 49.881 19.528 L 50.619 19.528 A 0.125 0.125 0 1 1 50.796 19.705 L 50.796 20 L 51.887 20 L 51.887 19.705 A 0.125 0.125 0 1 1 52.064 19.528 L 52.802 19.528 A 0.125 0.125 0 1 1 52.979 19.705 L 52.979 20 L 54.07 20 L 54.07 19.705 A 0.125 0.125 0 1 1 54.247 19.528 L 54.985 19.528 A 0.125 0.125 0 1 1 55.162 19.705 L 55.162 20 L 56.253 20 L 56.253 19.705 A 0.125 0.125 0 1 1 56.43 19.528 L 57.168 19.528 A 0.125 0.125 0 1 1 57.345 19.705 L 57.345 20 L 58.436 20 L 58.436 19.705 A 0.125 0.125 0 1 1 58.613 19.528 L 59.528 19.528 L 59.778 19.528 L 59.778 18.363 A 0.125 0.125 0 1 1 59.955 18.186 L 60.25 18.186 L 60.25 17.095 L 59.955 17.095 A 0.125 0.125 0 1 1 59.778 16.918 L 59.778 16.18 A 0.125 0.125 0 1 1 59.955 16.003 L 60.25 16.003 L 60.25 14.912 L 59.955 14.912 A 0.125 0.125 0 1 1 59.778 14.735 L 59.778 13.997 A 0.125 0.125 0 1 1 59.955 13.82 L 60.25 13.82 L 60.25 12.729 L 59.955 12.729 A 0.125 0.125 0 1 1 59.778 12.552 L 59.778 11.814 A 0.125 0.125 0 1 1 59.955 11.637 L 60.25 11.637 L 60.25 10.546 L 59.955 10.546 A 0.125 0.125 0 1 1 59.778 10.369 L 59.778 9.631 A 0.125 0.125 0 1 1 59.955 9.454 L 60.25 9.454 L 60.25 8.363 L 59.955 8.363 A 0.125 0.125 0 1 1 59.778 8.186 L 59.778 7.448 A 0.125 0.125 0 1 1 59.955 7.271 L 60.25 7.271 L 60.25 6.18 L 59.955 6.18 A 0.125 0.125 0 1 1 59.778 6.003 L 59.778 5.265 A 0.125 0.125 0 1 1 59.955 5.088 L 60.25 5.088 L 60.25 3.997 L 59.955 3.997 A 0.125 0.125 0 1 1 59.778 3.82 L 59.778 3.082 A 0.125 0.125 0 1 1 59.955 2.905 L 60.25 2.905 L 60.25 1.814 L 59.955 1.814 A 0.125 0.125 0 1 1 59.778 1.637 L 59.778 0.722 L 59.778 0.472 L 58.613 0.472 A 0.125 0.125 0 1 1 58.436 0.295 L 58.436 0 L 57.345 0 L 57.345 0.295 A 0.125 0.125 0 1 1 57.168 0.472 L 56.43 0.472 A 0.125 0.125 0 1 1 56.253 0.295 L 56.253 0 L 55.162 0 L 55.162 0.295 A 0.125 0.125 0 1 1 54.985 0.472 L 54.247 0.472 A 0.125 0.125 0 1 1 54.07 0.295 L 54.07 0 L 52.979 0 L 52.979 0.295 A 0.125 0.125 0 1 1 52.802 0.472 L 52.064 0.472 A 0.125 0.125 0 1 1 51.887 0.295 L 51.887 0 L 50.796 0 L 50.796 0.295 A 0.125 0.125 0 1 1 50.619 0.472 L 49.881 0.472 A 0.125 0.125 0 1 1 49.704 0.295 L 49.704 0 L 48.613 0 L 48.613 0.295 A 0.125 0.125 0 1 1 48.436 0.472 L 47.698 0.472 A 0.125 0.125 0 1 1 47.521 0.295 L 47.521 0 L 46.43 0 L 46.43 0.295 A 0.125 0.125 0 1 1 46.253 0.472 L 45.515 0.472 A 0.125 0.125 0 1 1 45.338 0.295 L 45.338 0 L 44.247 0 L 44.247 0.295 A 0.125 0.125 0 1 1 44.07 0.472 L 43.332 0.472 A 0.125 0.125 0 1 1 43.155 0.295 L 43.155 0 L 42.064 0 L 42.064 0.295 A 0.125 0.125 0 1 1 41.887 0.472 L 40.972 0.472 L 40.722 0.472 Z" id="bottom_outsideCutPath" stroke="#FF0000" stroke-width="0.5" style="stroke:#FF0000;stroke-width:0.5" vector-effect="non-scaling-stroke"/></g></svg>